<svg width="38" height="38" viewBox="0 0 38 38" fill="none" xmlns="http://www.w3.org/2000/svg">
<path d="M18.75 37.5C13.9583 37.5 9.78299 35.9115 6.22396 32.7344C2.66493 29.5573 0.625 25.5903 0.104167 20.8333H4.375C4.86111 24.4444 6.46701 27.4306 9.19271 29.7917C11.9184 32.1528 15.1042 33.3333 18.75 33.3333C22.8125 33.3333 26.2587 31.9184 29.0885 29.0885C31.9184 26.2587 33.3333 22.8125 33.3333 18.75C33.3333 14.6875 31.9184 11.2413 29.0885 8.41146C26.2587 5.5816 22.8125 4.16667 18.75 4.16667C16.3542 4.16667 14.1146 4.72222 12.0312 5.83333C9.94792 6.94444 8.19444 8.47222 6.77083 10.4167H12.5V14.5833H0V2.08333H4.16667V6.97917C5.9375 4.75694 8.09896 3.03819 10.651 1.82292C13.2031 0.607639 15.9028 0 18.75 0C21.3542 0 23.7934 0.494792 26.0677 1.48438C28.342 2.47396 30.3212 3.81076 32.0052 5.49479C33.6892 7.17882 35.026 9.15799 36.0156 11.4323C37.0052 13.7066 37.5 16.1458 37.5 18.75C37.5 21.3542 37.0052 23.7934 36.0156 26.0677C35.026 28.342 33.6892 30.3212 32.0052 32.0052C30.3212 33.6892 28.342 35.026 26.0677 36.0156C23.7934 37.0052 21.3542 37.5 18.75 37.5ZM24.5833 27.5L16.6667 19.5833V8.33333H20.8333V17.9167L27.5 24.5833L24.5833 27.5Z" fill="white" fill-opacity="0.8"/>
</svg>
