<svg width="38" height="38" viewBox="0 0 38 38" fill="none" xmlns="http://www.w3.org/2000/svg">
<path d="M19 19C16.3875 19 14.151 18.0698 12.2906 16.2094C10.4302 14.349 9.5 12.1125 9.5 9.5C9.5 6.8875 10.4302 4.65104 12.2906 2.79062C14.151 0.930208 16.3875 0 19 0C21.6125 0 23.849 0.930208 25.7094 2.79062C27.5698 4.65104 28.5 6.8875 28.5 9.5C28.5 12.1125 27.5698 14.349 25.7094 16.2094C23.849 18.0698 21.6125 19 19 19ZM5 38C2.23858 38 0 35.7614 0 33V31.35C0 30.0042 0.346354 28.7672 1.03906 27.6391C1.73177 26.5109 2.65208 25.65 3.8 25.0562C6.25417 23.8292 8.74792 22.9089 11.2812 22.2953C13.8146 21.6818 16.3875 21.375 19 21.375C21.6125 21.375 24.1854 21.6818 26.7188 22.2953C29.2521 22.9089 31.7458 23.8292 34.2 25.0562C35.3479 25.65 36.2682 26.5109 36.9609 27.6391C37.6536 28.7672 38 30.0042 38 31.35V33C38 35.7614 35.7614 38 33 38H5Z" fill="white" fill-opacity="0.8"/>
</svg>
