<svg width="40" height="29" viewBox="0 0 40 29" fill="none" xmlns="http://www.w3.org/2000/svg">
<path d="M5.07762 28.0421C3.37506 28.0421 2.05642 27.4495 1.12168 26.2644C0.186947 25.0793 -0.163579 23.6355 0.0701052 21.9329L2.17326 6.91037C2.47371 4.90736 3.36672 3.25488 4.85228 1.95293C6.33784 0.650977 8.08212 0 10.0851 0H29.9149C31.9179 0 33.6622 0.650977 35.1477 1.95293C36.6333 3.25488 37.5263 4.90736 37.8267 6.91037L39.9299 21.9329C40.1636 23.6355 39.813 25.0793 38.8783 26.2644C37.9436 27.4495 36.6249 28.0421 34.9224 28.0421C34.2213 28.0421 33.5704 27.9169 32.9695 27.6665C32.3685 27.4161 31.8177 27.0406 31.317 26.5398L26.8102 22.0331H13.1898L8.68302 26.5398C8.18227 27.0406 7.63145 27.4161 7.03054 27.6665C6.42964 27.9169 5.77867 28.0421 5.07762 28.0421ZM30.015 16.024C30.5825 16.024 31.0583 15.8321 31.4422 15.4482C31.8261 15.0643 32.018 14.5886 32.018 14.021C32.018 13.4535 31.8261 12.9778 31.4422 12.5939C31.0583 12.21 30.5825 12.018 30.015 12.018C29.4475 12.018 28.9718 12.21 28.5879 12.5939C28.204 12.9778 28.012 13.4535 28.012 14.021C28.012 14.5886 28.204 15.0643 28.5879 15.4482C28.9718 15.8321 29.4475 16.024 30.015 16.024ZM26.009 10.015C26.5765 10.015 27.0522 9.82307 27.4362 9.43916C27.8201 9.05525 28.012 8.57954 28.012 8.01202C28.012 7.4445 27.8201 6.96879 27.4362 6.58488C27.0522 6.20097 26.5765 6.00901 26.009 6.00901C25.4415 6.00901 24.9658 6.20097 24.5819 6.58488C24.198 6.96879 24.006 7.4445 24.006 8.01202C24.006 8.57954 24.198 9.05525 24.5819 9.43916C24.9658 9.82307 25.4415 10.015 26.009 10.015ZM11.4872 16.024H14.4917V12.5188H17.997V9.51427H14.4917V6.00901H11.4872V9.51427H7.98197V12.5188H11.4872V16.024Z" fill="white" fill-opacity="0.8"/>
</svg>
