<svg width="20" height="20" viewBox="0 0 20 20" fill="none" xmlns="http://www.w3.org/2000/svg">
<path d="M18.178 8.17435H11.8194V1.82102C11.8194 0.815365 11.008 0 10.0023 0C8.99666 0 8.1857 0.815365 8.1857 1.82147V8.17875H1.82401C0.818348 8.17875 0.000780919 8.99412 0.00122142 10.0002C0.000780919 10.5028 0.203851 10.9636 0.532904 11.2926C0.862398 11.6226 1.31699 11.8309 1.81916 11.8309H8.1857V18.1794C8.1857 18.6825 8.38525 19.1379 8.71474 19.4666C9.04424 19.796 9.49751 20 10.0006 20C11.0058 20 11.8194 19.1846 11.8194 18.1794V11.8305H18.178C19.1837 11.8305 19.999 11.0081 19.9986 10.0024C19.9981 8.9972 19.1828 8.17435 18.178 8.17435Z" fill="black" fill-opacity="0.8"/>
</svg>
