<svg width="35" height="39" viewBox="0 0 35 39" fill="none" xmlns="http://www.w3.org/2000/svg">
<path d="M1 38.8889C0.447715 38.8889 0 38.4412 0 37.8889V31.1111C0 30.0417 0.380787 29.1262 1.14236 28.3646C1.90394 27.603 2.81944 27.2222 3.88889 27.2222H5.54476C6.0444 27.2222 6.46738 26.8534 6.53544 26.3584L7.32988 20.5807C7.41249 19.9799 6.94564 19.4444 6.3392 19.4444H2.94444C2.39216 19.4444 1.94444 18.9967 1.94444 18.4444V16.5556C1.94444 16.0033 2.39216 15.5556 2.94444 15.5556H32.0556C32.6078 15.5556 33.0556 16.0033 33.0556 16.5556V18.4444C33.0556 18.9967 32.6078 19.4444 32.0556 19.4444H28.6608C28.0544 19.4444 27.5875 19.9799 27.6701 20.5807L28.4646 26.3584C28.5326 26.8534 28.9556 27.2222 29.4552 27.2222H31.1111C32.1806 27.2222 33.0961 27.603 33.8576 28.3646C34.6192 29.1262 35 30.0417 35 31.1111V37.8889C35 38.4412 34.5523 38.8889 34 38.8889H1ZM7.50983 12.6389C7.04144 12.6389 6.63581 12.3138 6.53383 11.8566L4.4826 2.66147C4.27985 1.7526 5.33564 1.06405 6.10981 1.58154C6.468 1.82096 6.82955 2.05536 7.19444 2.28472C8.3287 2.99769 9.57639 3.35417 10.9375 3.35417C12.2338 3.35417 13.4248 3.02199 14.5104 2.35764C15.3129 1.86656 16.0667 1.30907 16.7718 0.685185C17.1854 0.31921 17.8146 0.31921 18.2282 0.685185C18.9333 1.30907 19.6871 1.86656 20.4896 2.35764C21.5752 3.02199 22.7662 3.35417 24.0625 3.35417C25.4236 3.35417 26.6713 2.99769 27.8056 2.28472C28.1748 2.05263 28.5406 1.81538 28.903 1.57298C29.6755 1.05625 30.7295 1.74077 30.5305 2.6486L28.5126 11.853C28.412 12.3119 28.0055 12.6389 27.5358 12.6389H7.50983Z" fill="white" fill-opacity="0.8"/>
</svg>
