<svg width="38" height="38" viewBox="0 0 38 38" fill="none" xmlns="http://www.w3.org/2000/svg">
<path d="M19 19C16.3875 19 14.151 18.0698 12.2906 16.2094C10.4302 14.349 9.5 12.1125 9.5 9.5C9.5 6.8875 10.4302 4.65104 12.2906 2.79062C14.151 0.930208 16.3875 0 19 0C21.6125 0 23.849 0.930208 25.7094 2.79062C27.5698 4.65104 28.5 6.8875 28.5 9.5C28.5 12.1125 27.5698 14.349 25.7094 16.2094C23.849 18.0698 21.6125 19 19 19ZM5 38C2.23858 38 0 35.7614 0 33V31.35C0 30.0042 0.346354 28.7672 1.03906 27.6391C1.73177 26.5109 2.65208 25.65 3.8 25.0562C6.25417 23.8292 8.74792 22.9089 11.2812 22.2953C13.8146 21.6818 16.3875 21.375 19 21.375C21.6125 21.375 24.1854 21.6818 26.7187 22.2953C29.2521 22.9089 31.7458 23.8292 34.2 25.0562C35.3479 25.65 36.2682 26.5109 36.9609 27.6391C37.6536 28.7672 38 30.0042 38 31.35V33C38 35.7614 35.7614 38 33 38H5Z M32.4286 5.87143C32.4286 5.70574 32.2943 5.57143 32.1286 5.57143H29.3C29.1343 5.57143 29 5.43711 29 5.27143V4.72857C29 4.56289 29.1343 4.42857 29.3 4.42857H32.1286C32.2943 4.42857 32.4286 4.29426 32.4286 4.12857V1.3C32.4286 1.13431 32.5629 1 32.7286 1H33.2714C33.4371 1 33.5714 1.13431 33.5714 1.3V4.12857C33.5714 4.29426 33.7057 4.42857 33.8714 4.42857H36.7C36.8657 4.42857 37 4.56289 37 4.72857V5.27143C37 5.43711 36.8657 5.57143 36.7 5.57143H33.8714C33.7057 5.57143 33.5714 5.70574 33.5714 5.87143V8.7C33.5714 8.86569 33.4371 9 33.2714 9H32.7286C32.5629 9 32.4286 8.86569 32.4286 8.7V5.87143Z" fill="white" fill-opacity="0.8"/>
</svg>
